Coordinates
version=1
nRows=8
nColumns=63
inDegrees=yes

Units are S.I. units (second, meters, Newtons, ...)
If the header above contains a line with 'inDegrees', this indicates whether rotational values are in degrees (yes) or radians (no).

endheader
time	pelvis_tilt	pelvis_list	pelvis_rotation	pelvis_tx	pelvis_ty	pelvis_tz	hip_flexion_r	hip_adduction_r	hip_rotation_r	knee_angle_r	knee_angle_r_beta	ankle_angle_r	subtalar_angle_r	mtp_angle_r	hip_flexion_l	hip_adduction_l	hip_rotation_l	knee_angle_l	knee_angle_l_beta	ankle_angle_l	subtalar_angle_l	mtp_angle_l	L5_S1_Flex_Ext	L5_S1_Lat_Bending	L5_S1_axial_rotation	L4_L5_Flex_Ext	L4_L5_Lat_Bending	L4_L5_axial_rotation	L3_L4_Flex_Ext	L3_L4_Lat_Bending	L3_L4_axial_rotation	L2_L3_Flex_Ext	L2_L3_Lat_Bending	L2_L3_axial_rotation	L1_L2_Flex_Ext	L1_L2_Lat_Bending	L1_L2_axial_rotation	L1_T12_Flex_Ext	L1_T12_Lat_Bending	L1_T12_axial_rotation	Abs_r3	Abs_r2	Abs_r1	Abs_t1	Abs_t2	neck_flexion	neck_bending	neck_rotation	arm_flex_r	arm_add_r	arm_rot_r	elbow_flex_r	pro_sup_r	wrist_flex_r	wrist_dev_r	arm_flex_l	arm_add_l	arm_rot_l	elbow_flex_l	pro_sup_l	wrist_flex_l	wrist_dev_l
0.000000	-2.968744	-2.475170	84.770570	0.173944	0.442194	1.087077	3.031715	-3.920897	-8.496758	5.395950	0.094177	29.689205	13.156486	0.000000	3.435074	3.075921	6.106054	3.547422	0.061914	25.463539	-8.994254	0.000000	0.270378	-0.256047	1.271362	0.502119	-0.340542	1.350822	0.444204	-0.622552	1.350822	0.309015	-0.622552	1.112441	0.251073	-0.522130	1.032981	0.154494	-0.396616	0.953521	1.931284	-2.896451	7.070932	0.000000	0.000000	9.075806	3.844486	-10.121323	22.958622	-3.999375	62.988702	31.649452	83.621967	12.234342	13.030362	22.637114	-6.661805	72.725730	38.046938	45.039512	-1.483898	0.088262
0.016949	-2.700762	-2.005575	86.444296	0.172400	0.443714	1.081564	1.519734	-3.436351	-8.564367	4.498294	0.078510	28.782278	11.236720	0.000000	2.582114	2.864951	7.238778	3.546906	0.061905	25.165597	-8.615253	0.000000	0.274069	-0.245359	1.188192	0.508973	-0.326327	1.262454	0.450268	-0.596565	1.262454	0.313233	-0.596565	1.039668	0.254500	-0.500336	0.965406	0.156603	-0.380061	0.891144	1.957646	-2.775548	6.608367	0.000000	0.000000	9.311479	3.763014	-10.747562	20.306816	-4.906402	59.325759	33.912592	82.126402	12.070301	12.936811	22.357940	-6.912467	76.724386	38.717932	41.975561	-1.970109	-3.235015
0.033898	-2.430912	-1.639428	87.897953	0.171015	0.444902	1.077152	0.341297	-3.017386	-8.928841	3.893219	0.067949	28.114680	9.919840	0.000000	1.948163	2.635065	8.071244	3.642896	0.063581	24.994983	-8.055785	0.000000	0.278526	-0.230742	1.107837	0.517250	-0.306886	1.177077	0.457590	-0.561025	1.177077	0.318327	-0.561025	0.969357	0.258639	-0.470528	0.900117	0.159150	-0.357419	0.830878	1.989481	-2.610195	6.161456	0.000000	0.000000	9.520073	3.629642	-11.322205	18.063919	-5.674634	56.348175	35.712200	81.074256	11.829647	12.387115	22.181384	-7.123896	80.320007	39.360510	39.020445	-2.462588	-6.290812
0.050847	-2.161200	-1.365981	89.140891	0.169788	0.445787	1.073739	-0.535170	-2.658872	-9.543240	3.550484	0.061968	27.663567	9.140588	0.000000	1.508374	2.390124	8.638532	3.820227	0.066676	24.935202	-7.355785	0.000000	0.283523	-0.212730	1.031566	0.526530	-0.282931	1.096039	0.465800	-0.517233	1.096039	0.324038	-0.517233	0.902621	0.263279	-0.433800	0.838148	0.162005	-0.329519	0.773675	2.025176	-2.406448	5.737262	0.000000	0.000000	9.703302	3.453728	-11.843513	16.195600	-6.322024	53.992896	37.108837	80.417803	11.524902	11.450829	22.099505	-7.302966	83.525982	39.979398	36.200469	-2.937644	-9.071575
0.067797	-1.893634	-1.174483	90.182454	0.168719	0.446395	1.071223	-1.141241	-2.355680	-10.360620	3.439853	0.060037	27.406094	8.833707	0.000000	1.237896	2.133994	8.975720	4.063729	0.070925	24.969757	-6.555189	0.000000	0.288835	-0.191860	0.960651	0.536395	-0.255174	1.020692	0.474527	-0.466489	1.020692	0.330109	-0.466489	0.840570	0.268212	-0.391242	0.780529	0.165040	-0.297192	0.720488	2.063119	-2.170363	5.342852	0.000000	0.000000	9.862879	3.244627	-12.309749	14.667528	-6.866524	52.196867	38.163066	80.109316	11.168588	10.197505	22.104360	-7.456555	86.355700	40.579323	33.541940	-3.371587	-11.569752
0.084746	-1.630219	-1.054186	91.031992	0.167805	0.446752	1.069502	-1.508493	-2.102683	-11.334042	3.531086	0.061629	27.319414	8.933939	0.000000	1.111880	1.870537	9.117888	4.358237	0.076066	25.082153	-5.693932	0.000000	0.294236	-0.168667	0.896361	0.546426	-0.224327	0.952384	0.483401	-0.410097	0.952384	0.336282	-0.410097	0.784316	0.273228	-0.343946	0.728293	0.168127	-0.261265	0.672271	2.101699	-1.907995	4.985291	0.000000	0.000000	10.000517	3.011698	-12.719176	13.445371	-7.326086	50.897036	38.935450	80.101070	10.773228	8.696696	22.188008	-7.591537	88.822549	41.165009	31.071165	-3.740723	-13.777789
0.101695	-1.372964	-0.994339	91.698850	0.167045	0.446886	1.068473	-1.668500	-1.894750	-12.416562	3.793945	0.066217	27.380684	9.376028	0.000000	1.105477	1.603617	9.100115	4.688583	0.081831	25.255893	-4.811952	0.000000	0.299501	-0.143686	0.839967	0.556203	-0.191102	0.892465	0.492050	-0.349357	0.892465	0.342299	-0.349357	0.734971	0.278116	-0.293004	0.682473	0.171135	-0.222569	0.629975	2.139304	-1.625400	4.671643	0.000000	0.000000	10.117929	2.764297	-13.070056	12.494799	-7.718664	50.030347	39.486551	80.345337	10.351344	7.017957	22.342506	-7.714787	90.939919	41.741184	28.814448	-4.021364	-15.688133
0.118644	-1.123874	-0.984194	92.192377	0.166439	0.446824	1.068035	-1.652835	-1.726753	-13.561239	4.198191	0.073272	27.567058	10.094714	0.000000	1.193838	1.337099	8.957480	5.039601	0.087958	25.474482	-3.949183	0.000000	0.304403	-0.117451	0.792739	0.565307	-0.156210	0.842285	0.500104	-0.285571	0.842285	0.347902	-0.285571	0.693646	0.282669	-0.239507	0.644100	0.173936	-0.181932	0.594554	2.174322	-1.328633	4.408975	0.000000	0.000000	10.216830	2.511779	-13.360651	11.781479	-8.062210	49.533747	39.876932	80.794392	9.915458	5.230839	22.559913	-7.833181	92.721199	42.312573	26.798097	-4.189818	-17.293230
